<?xml version="1.0" standalone="no"?>
<!DOCTYPE svg PUBLIC "-//W3C//DTD SVG 20010904//EN"
 "http://www.w3.org/TR/2001/REC-SVG-20010904/DTD/svg10.dtd">
<svg version="1.0" xmlns="http://www.w3.org/2000/svg"
 width="1056.000000pt" height="1056.000000pt" viewBox="0 0 1056.000000 1056.000000"
 preserveAspectRatio="xMidYMid meet">
<metadata>
Created by potrace 1.14, written by Peter Selinger 2001-2017
</metadata>
<g transform="translate(0.000000,1056.000000) scale(0.100000,-0.100000)"
fill="#000000" stroke="none">
<path d="M4081 8965 c-1 -6 -43 -10 -104 -11 -90 -1 -390 -9 -712 -19 -130 -4
-351 -13 -485 -20 -52 -2 -144 -7 -205 -10 -60 -3 -146 -8 -190 -11 -44 -3
-120 -7 -170 -9 -49 -2 -90 -5 -90 -6 0 -1 -40 -5 -150 -13 -76 -5 -189 -15
-245 -22 -19 -2 -60 -6 -90 -9 -30 -3 -66 -8 -80 -10 -14 -2 -47 -7 -75 -10
-27 -3 -61 -8 -75 -11 -14 -3 -32 -6 -40 -6 -13 -1 -112 -18 -176 -32 -117
-24 -303 -108 -433 -195 -85 -56 -245 -205 -314 -293 -20 -25 -37 -49 -37 -51
0 -3 -16 -29 -36 -58 -57 -85 -139 -269 -159 -359 -2 -8 -8 -30 -14 -48 -5
-18 -10 -35 -10 -37 0 -3 -4 -29 -10 -58 -6 -28 -13 -64 -15 -80 -3 -15 -7
-35 -10 -45 -5 -18 -11 -57 -21 -137 -4 -27 -8 -57 -10 -65 -2 -8 -7 -37 -10
-65 -3 -27 -8 -70 -11 -95 -3 -24 -8 -63 -9 -85 -2 -22 -6 -62 -9 -90 -21
-198 -25 -233 -31 -326 -12 -169 -19 -285 -30 -493 -3 -66 -8 -123 -11 -127
-2 -4 0 -10 6 -14 6 -4 7 -12 3 -18 -24 -40 -23 -1232 2 -1667 3 -41 7 -124
10 -185 6 -118 10 -186 20 -305 7 -79 11 -122 19 -230 3 -36 8 -76 10 -90 3
-14 7 -56 10 -95 4 -38 9 -83 12 -100 3 -16 7 -48 9 -70 2 -22 6 -51 9 -65 3
-14 8 -45 10 -70 4 -40 8 -67 21 -135 17 -97 46 -226 54 -248 6 -15 10 -31 10
-35 -1 -4 0 -10 1 -14 1 -5 3 -11 4 -15 14 -58 122 -294 138 -301 5 -2 8 -9 8
-16 0 -7 8 -21 19 -32 10 -11 23 -29 29 -41 22 -41 165 -194 237 -253 89 -74
268 -184 279 -172 3 3 6 0 6 -6 0 -7 8 -12 18 -12 10 0 22 -4 27 -9 6 -5 46
-21 90 -36 81 -27 96 -31 150 -40 17 -3 37 -8 45 -10 8 -2 31 -6 50 -9 19 -3
49 -8 65 -11 124 -21 151 -25 300 -39 33 -4 78 -8 100 -11 50 -6 119 -13 215
-20 41 -3 95 -7 120 -9 25 -3 88 -7 140 -10 52 -4 133 -8 180 -11 133 -9 407
-22 601 -30 110 -5 200 -7 624 -21 110 -3 211 -7 225 -8 14 -1 32 2 41 6 9 4
19 4 23 1 12 -12 381 -17 1311 -17 939 0 1414 6 1433 18 6 3 13 2 17 -4 4 -6
11 -8 16 -5 13 9 124 10 137 1 7 -4 12 -4 12 1 0 4 39 9 88 9 284 5 412 10
412 18 0 5 6 3 13 -3 8 -6 16 -8 19 -6 3 3 63 8 134 11 314 11 623 27 784 39
36 3 94 7 130 10 195 13 295 22 295 24 0 1 25 4 55 6 85 6 166 16 270 31 19 3
49 6 65 8 85 10 280 52 330 70 11 5 34 13 50 18 107 38 239 111 340 187 83 63
212 195 260 266 22 33 45 66 52 73 26 28 123 242 148 327 35 120 77 315 90
411 3 22 7 50 10 64 4 14 8 43 10 65 2 22 7 58 10 80 4 22 8 51 10 65 4 41 18
163 20 190 2 14 6 54 9 90 20 201 32 354 41 525 26 509 29 608 29 1110 0 633
-13 967 -59 1525 -3 41 -7 79 -21 210 -3 25 -7 61 -9 80 -8 82 -21 180 -28
220 -3 14 -8 48 -12 75 -12 84 -19 123 -29 165 -4 14 -8 39 -11 55 -22 152
-117 433 -163 488 -8 9 -12 17 -9 17 6 0 -28 57 -51 85 -4 6 -19 26 -32 45
-77 109 -205 232 -334 319 -90 62 -265 144 -335 157 -14 3 -29 8 -35 11 -8 6
-26 10 -116 28 -48 10 -125 24 -160 29 -19 3 -44 7 -55 10 -19 3 -133 19 -165
22 -8 0 -17 2 -20 3 -3 1 -27 4 -55 6 -27 1 -68 6 -90 9 -22 3 -76 8 -120 11
-44 4 -105 8 -135 11 -118 10 -313 23 -420 29 -47 2 -85 5 -85 5 0 2 -274 15
-515 25 -250 11 -719 25 -988 29 -78 2 -145 5 -148 9 -3 3 -16 2 -28 -3 -12
-4 -29 -4 -38 1 -11 6 -19 5 -23 -1 -4 -6 -10 -8 -15 -5 -16 10 -80 12 -80 3
0 -5 -8 -5 -17 0 -21 11 -1803 12 -1803 1 0 -4 -16 -3 -35 1 -19 4 -35 4 -35
0 0 -5 -13 -5 -29 0 -16 4 -32 6 -34 3 -10 -10 -127 -9 -131 1 -3 7 -5 7 -5 1z"/>
</g>
</svg>
