<svg xmlns="http://www.w3.org/2000/svg" width="66.245" height="46.36" viewBox="0 0 66.245 46.36">
  <g id="g4189" transform="translate(-48.864 -79.225)">
    <g id="g4167" transform="translate(48.864 79.225)">
      <path id="path4156" d="M81.967,79.225s-20.7,0-25.9,1.35a8.561,8.561,0,0,0-5.851,5.892c-1.35,5.2-1.35,15.958-1.35,15.958s0,10.8,1.35,15.917a8.431,8.431,0,0,0,5.851,5.851c5.237,1.391,25.9,1.391,25.9,1.391s20.745,0,25.942-1.35a8.233,8.233,0,0,0,5.81-5.851c1.391-5.156,1.391-15.917,1.391-15.917s.041-10.8-1.391-16a8.179,8.179,0,0,0-5.81-5.81C102.712,79.225,81.967,79.225,81.967,79.225Z" transform="translate(-48.864 -79.225)" fill="red"/>
      <path id="Icon_material-trending-up" data-name="Icon material-trending-up" d="M28.195,9l4.121,4.121L23.534,21.9l-7.2-7.2L3,28.058,5.537,30.6l10.8-10.8,7.2,7.2,11.338-11.32L38.993,19.8V9Z" transform="translate(12.126 3.382)" fill="#fff"/>
    </g>
  </g>
</svg>
